<?xml version="1.0" standalone="no"?>
<!DOCTYPE svg PUBLIC "-//W3C//DTD SVG 20010904//EN"
 "http://www.w3.org/TR/2001/REC-SVG-20010904/DTD/svg10.dtd">
<svg version="1.0" xmlns="http://www.w3.org/2000/svg"
 width="198.000000pt" height="198.000000pt" viewBox="0 0 198.000000 198.000000"
 preserveAspectRatio="xMidYMid meet">

<g transform="translate(0.000000,198.000000) scale(0.100000,-0.100000)"
fill="#000000" stroke="none">
<path d="M1495 1641 c-100 -24 -148 -106 -191 -327 -19 -100 -30 -118 -82
-132 -32 -9 -34 -10 -10 -11 46 -2 58 -11 58 -46 0 -42 -76 -564 -96 -664 -22
-108 -58 -141 -88 -82 -23 43 -66 51 -80 15 -19 -48 53 -76 122 -49 36 15 46
26 71 79 16 33 36 99 45 146 15 80 86 560 86 582 0 7 21 8 61 4 41 -5 65 -3
75 5 27 22 14 29 -56 29 -82 0 -79 -7 -54 134 35 202 87 306 153 306 26 0 34
-6 51 -41 16 -31 26 -40 43 -37 17 2 23 11 25 36 3 29 -1 34 -32 47 -38 16
-54 17 -101 6z"/>
<path d="M595 1510 c-60 -3 -96 -7 -78 -8 32 -2 63 -24 63 -45 0 -7 -7 -50
-16 -97 -24 -136 -53 -297 -73 -415 -38 -215 -47 -235 -108 -235 -18 0 -33 -3
-33 -7 0 -13 320 -14 375 -2 165 37 312 186 360 365 19 69 21 173 6 230 -27
100 -119 184 -229 210 -59 14 -79 14 -267 4z m290 -29 c47 -21 90 -67 119
-131 29 -61 30 -247 2 -330 -47 -142 -126 -238 -234 -288 -46 -21 -73 -26
-135 -26 -72 -1 -80 1 -99 24 -21 26 -21 57 2 175 6 28 19 102 30 165 59 338
69 383 89 404 39 39 147 42 226 7z"/>
<path d="M825 1139 c-4 -6 -5 -12 -2 -15 2 -3 7 2 10 11 7 17 1 20 -8 4z"/>
</g>
</svg>
